<svg width="48" height="48" viewBox="0 0 48 48" fill="none" xmlns="http://www.w3.org/2000/svg" xmlns:xlink="http://www.w3.org/1999/xlink">
<path d="M36,16.469L38.057,16.469L38.057,16.469L36,16.469ZM12,16.469L9.943,16.469L9.943,16.469L12,16.469ZM38.057,21.612L38.057,16.469L33.943,16.469L33.943,21.612L38.057,21.612ZM38.057,16.469C38.057,12.741 36.576,9.166 33.94,6.529L31.031,9.439C32.895,11.303 33.943,13.832 33.943,16.469L38.057,16.469ZM33.94,6.529C31.304,3.893 27.728,2.412 24,2.412L24,6.526C26.637,6.526 29.166,7.574 31.031,9.439L33.94,6.529ZM24,2.412C20.272,2.412 16.696,3.893 14.06,6.529L16.969,9.439C18.834,7.574 21.363,6.526 24,6.526L24,2.412ZM14.06,6.529C11.424,9.166 9.943,12.741 9.943,16.469L14.057,16.469C14.057,13.832 15.105,11.303 16.969,9.439L14.06,6.529ZM9.943,16.469L9.943,21.612L14.057,21.612L14.057,16.469L9.943,16.469ZM9.943,21.612C9.943,23.69 9.054,24.97 7.886,26.294C7.351,26.9 6.551,27.727 5.987,28.516C5.369,29.381 4.8,30.493 4.8,31.898L8.914,31.898C8.914,31.673 8.988,31.393 9.335,30.908C9.735,30.347 10.221,29.867 10.971,29.016C12.375,27.425 14.057,25.191 14.057,21.612L9.943,21.612ZM4.8,31.898C4.8,33.497 5.733,34.717 6.797,35.55C7.862,36.384 9.287,37.029 10.899,37.527C14.145,38.531 18.654,39.098 24,39.098L24,34.983C18.889,34.983 14.827,34.436 12.115,33.597C10.749,33.174 9.849,32.715 9.333,32.311C8.817,31.907 8.914,31.756 8.914,31.898L4.8,31.898ZM24,39.098C29.346,39.098 33.855,38.531 37.101,37.527C38.713,37.029 40.138,36.384 41.203,35.55C42.267,34.717 43.2,33.497 43.2,31.898L39.086,31.898C39.086,31.756 39.183,31.907 38.667,32.311C38.151,32.715 37.251,33.174 35.885,33.597C33.173,34.436 29.112,34.983 24,34.983L24,39.098ZM43.2,31.898C43.2,30.493 42.631,29.381 42.013,28.516C41.449,27.727 40.649,26.9 40.114,26.294C38.946,24.97 38.057,23.69 38.057,21.612L33.943,21.612C33.943,25.191 35.625,27.425 37.029,29.016C37.78,29.867 38.265,30.347 38.665,30.908C39.012,31.393 39.086,31.673 39.086,31.898L43.2,31.898Z" transform="rotate(0 24 20.755)" fill="#565E6C"/>
<path d="M24,40.469C22.267,40.469 20.638,40.411 19.106,40.297C19.432,41.34 20.083,42.25 20.964,42.897C21.844,43.544 22.908,43.892 24,43.892C25.092,43.892 26.156,43.544 27.036,42.897C27.917,42.25 28.568,41.34 28.894,40.297C27.362,40.411 25.733,40.469 24,40.469Z" transform="rotate(0 24 42.095)" fill="#565E6C"/>
</svg>
