<svg width="32" height="32" viewBox="0 0 32 32" fill="none" xmlns="http://www.w3.org/2000/svg" xmlns:xlink="http://www.w3.org/1999/xlink">
<line x1="20.343" y1="2.755" x2="20.343" y2="6.183" stroke="#171A1F" stroke-width="1.371" stroke-miterlimit="10" stroke-linecap="square"/>
<line x1="8.914" y1="2.755" x2="8.914" y2="6.183" stroke="#171A1F" stroke-width="1.371" stroke-miterlimit="10" stroke-linecap="square"/>
<line x1="3.429" y1="9.383" x2="28.572" y2="9.383" stroke="#171A1F" stroke-width="1.371" stroke-miterlimit="10"/>
<path d="M3.429,6.183L3.429,4.812L2.057,4.812L2.057,6.183L3.429,6.183ZM28.572,6.183L29.943,6.183L29.943,4.812L28.572,4.812L28.572,6.183ZM28.572,26.755L28.572,28.126L29.943,28.126L29.943,26.755L28.572,26.755ZM3.429,26.755L2.057,26.755L2.057,28.126L3.429,28.126L3.429,26.755ZM3.429,7.555L28.572,7.555L28.572,4.812L3.429,4.812L3.429,7.555ZM27.2,6.183L27.2,26.755L29.943,26.755L29.943,6.183L27.2,6.183ZM28.572,25.383L3.429,25.383L3.429,28.126L28.572,28.126L28.572,25.383ZM4.8,26.755L4.8,6.183L2.057,6.183L2.057,26.755L4.8,26.755Z" transform="rotate(0 16 16.469)" fill="#171A1F"/>
</svg>
