<svg width="48" height="48" viewBox="0 0 48 48" fill="none" xmlns="http://www.w3.org/2000/svg" xmlns:xlink="http://www.w3.org/1999/xlink">
<path d="M24,23.326L21.943,23.326L21.943,25.383L24,25.383L24,23.326ZM21.943,4.469L21.943,23.326L26.057,23.326L26.057,4.469L21.943,4.469ZM24,25.383L42.857,25.383L42.857,21.269L24,21.269L24,25.383Z" transform="rotate(0 33.429 13.898)" fill="#565E6C"/>
<path d="M22.602,21.817L8.717,34.674L11.512,37.693L25.398,24.836L22.602,21.817Z" transform="rotate(0 17.057 29.755)" fill="#565E6C"/>
<path d="M40.8,23.326C40.8,32.605 33.278,40.126 24,40.126L24,44.241C35.551,44.241 44.914,34.877 44.914,23.326L40.8,23.326ZM24,40.126C14.722,40.126 7.2,32.605 7.2,23.326L3.086,23.326C3.086,34.877 12.449,44.241 24,44.241L24,40.126ZM7.2,23.326C7.2,14.048 14.722,6.526 24,6.526L24,2.412C12.449,2.412 3.086,11.776 3.086,23.326L7.2,23.326ZM24,6.526C33.278,6.526 40.8,14.048 40.8,23.326L44.914,23.326C44.914,11.776 35.551,2.412 24,2.412L24,6.526Z" transform="rotate(0 24 23.326)" fill="#565E6C"/>
</svg>
