<svg width="40" height="40" viewBox="0 0 40 40" fill="none" xmlns="http://www.w3.org/2000/svg" xmlns:xlink="http://www.w3.org/1999/xlink">
<path d="M25,26.019L25.542,24.393L25.542,24.392L25,26.019ZM31.696,31.365C31.58,29.306 30.905,27.739 29.662,26.569C28.502,25.476 26.988,24.874 25.542,24.393L24.458,27.645C25.858,28.112 26.739,28.526 27.312,29.065C27.802,29.526 28.196,30.206 28.273,31.558L31.696,31.365ZM25.542,24.392C24.403,24.013 23.919,22.728 23.762,21.57L20.364,22.031C20.536,23.295 21.248,26.576 24.458,27.645L25.542,24.392Z" transform="rotate(0 26.024 26.631)" fill="#FFFFFF"/>
<path d="M15,26.019L14.458,24.392L14.458,24.393L15,26.019ZM16.236,21.571C16.082,22.726 15.606,24.01 14.458,24.392L15.542,27.645C18.768,26.571 19.466,23.283 19.635,22.026L16.236,21.571ZM14.458,24.393C13.013,24.874 11.498,25.475 10.337,26.566C9.093,27.736 8.418,29.302 8.301,31.362L11.724,31.556C11.801,30.204 12.196,29.525 12.686,29.064C13.259,28.525 14.141,28.112 15.542,27.645L14.458,24.393Z" transform="rotate(0 13.974 26.629)" fill="#FFFFFF"/>
<path d="M20,20.469C17.791,20.469 16,18.678 16,16.469L12.571,16.469C12.571,20.572 15.897,23.898 20,23.898L20,20.469ZM16,16.469L16,15.04L12.571,15.04L12.571,16.469L16,16.469ZM16,15.04C16,12.832 17.791,11.04 20,11.04L20,7.612C15.897,7.612 12.571,10.938 12.571,15.04L16,15.04ZM20,11.04C22.209,11.04 24,12.832 24,15.04L27.429,15.04C27.429,10.938 24.102,7.612 20,7.612L20,11.04ZM24,15.04L24,16.469L27.429,16.469L27.429,15.04L24,15.04ZM24,16.469C24,18.678 22.209,20.469 20,20.469L20,23.898C24.102,23.898 27.429,20.572 27.429,16.469L24,16.469Z" transform="rotate(0 20 15.755)" fill="#FFFFFF"/>
<path d="M34,19.326C34,27.058 27.732,33.326 20,33.326L20,36.755C29.625,36.755 37.428,28.952 37.428,19.326L34,19.326ZM20,33.326C12.268,33.326 6,27.058 6,19.326L2.571,19.326C2.571,28.952 10.374,36.755 20,36.755L20,33.326ZM6,19.326C6,11.594 12.268,5.326 20,5.326L20,1.898C10.374,1.898 2.571,9.701 2.571,19.326L6,19.326ZM20,5.326C27.732,5.326 34,11.594 34,19.326L37.428,19.326C37.428,9.701 29.625,1.898 20,1.898L20,5.326Z" transform="rotate(0 20 19.326)" fill="#FFFFFF"/>
</svg>
