<svg width="40" height="40" viewBox="0 0 40 40" fill="none" xmlns="http://www.w3.org/2000/svg" xmlns:xlink="http://www.w3.org/1999/xlink">
<line x1="18.286" y1="3.612" x2="18.286" y2="35.04" stroke="#FFFFFF" stroke-width="1.714" stroke-miterlimit="10" stroke-linecap="square"/>
<path d="M25.723,9.46L27.285,10.166L28.697,7.041L27.134,6.335L25.723,9.46ZM20,6.469L20.023,4.755L20,4.755L20,6.469ZM20,30.755L20.007,32.469L20.013,32.469L20,30.755ZM11.992,27.707L10.372,27.144L9.247,30.383L10.866,30.946L11.992,27.707ZM27.134,6.335C24.898,5.325 22.477,4.787 20.023,4.755L19.978,8.183C21.96,8.209 23.916,8.644 25.723,9.46L27.134,6.335ZM20,4.755C18.011,4.755 15.711,5.141 13.845,6.243C11.889,7.398 10.429,9.348 10.429,12.184L13.857,12.184C13.857,10.734 14.519,9.827 15.588,9.195C16.746,8.512 18.375,8.184 20,8.184L20,4.755ZM10.429,12.184C10.429,13.53 10.741,14.711 11.346,15.724C11.945,16.727 12.776,17.475 13.678,18.049C15.414,19.154 17.657,19.75 19.549,20.266C21.586,20.822 23.272,21.297 24.482,22.067C25.052,22.431 25.45,22.821 25.71,23.257C25.965,23.684 26.143,24.244 26.143,25.041L29.572,25.041C29.572,23.694 29.259,22.514 28.654,21.5C28.055,20.497 27.225,19.749 26.322,19.175C24.586,18.07 22.343,17.474 20.451,16.958C18.414,16.403 16.729,15.927 15.519,15.157C14.948,14.794 14.551,14.403 14.29,13.967C14.036,13.54 13.857,12.98 13.857,12.184L10.429,12.184ZM26.143,25.041C26.143,26.603 25.54,27.467 24.623,28.036C23.581,28.683 21.986,29.025 19.987,29.041L20.013,32.469C22.277,32.452 24.611,32.079 26.432,30.949C28.377,29.741 29.572,27.764 29.572,25.041L26.143,25.041ZM19.993,29.041C17.27,29.052 14.564,28.601 11.992,27.707L10.866,30.946C13.805,31.967 16.896,32.482 20.007,32.469L19.993,29.041Z" transform="rotate(0 19.643 18.612)" fill="#FFFFFF"/>
</svg>
