<svg width="48" height="48" viewBox="0 0 48 48" fill="none" xmlns="http://www.w3.org/2000/svg" xmlns:xlink="http://www.w3.org/1999/xlink">
<path d="M17.143,31.897L18.749,30.612L18.132,29.84L17.143,29.84L17.143,31.897ZM24,40.469L22.394,41.754L24,43.762L25.606,41.754L24,40.469ZM30.857,31.897L30.857,29.84L29.868,29.84L29.251,30.612L30.857,31.897ZM39.429,4.126L8.571,4.126L8.571,8.24L39.429,8.24L39.429,4.126ZM8.571,4.126C5.541,4.126 3.086,6.581 3.086,9.612L7.2,9.612C7.2,8.854 7.813,8.24 8.571,8.24L8.571,4.126ZM3.086,9.612L3.086,28.469L7.2,28.469L7.2,9.612L3.086,9.612ZM3.086,28.469C3.086,31.499 5.541,33.955 8.571,33.955L8.571,29.84C7.813,29.84 7.2,29.227 7.2,28.469L3.086,28.469ZM8.571,33.955L17.143,33.955L17.143,29.84L8.571,29.84L8.571,33.955ZM15.536,33.183L22.394,41.754L25.606,39.184L18.749,30.612L15.536,33.183ZM25.606,41.754L32.463,33.183L29.251,30.612L22.394,39.184L25.606,41.754ZM30.857,33.955L39.429,33.955L39.429,29.84L30.857,29.84L30.857,33.955ZM39.429,33.955C42.459,33.955 44.914,31.499 44.914,28.469L40.8,28.469C40.8,29.227 40.187,29.84 39.429,29.84L39.429,33.955ZM44.914,28.469L44.914,9.612L40.8,9.612L40.8,28.469L44.914,28.469ZM44.914,9.612C44.914,6.581 42.459,4.126 39.429,4.126L39.429,8.24C40.187,8.24 40.8,8.854 40.8,9.612L44.914,9.612Z" transform="rotate(0 24 23.326)" fill="#565E6C"/>
<line x1="15.428" y1="12.698" x2="32.571" y2="12.698" stroke="#565E6C" stroke-width="2.057" stroke-miterlimit="10" stroke-linecap="square"/>
<line x1="15.428" y1="21.269" x2="25.714" y2="21.269" stroke="#565E6C" stroke-width="2.057" stroke-miterlimit="10" stroke-linecap="square"/>
</svg>
