<svg width="48" height="48" viewBox="0 0 48 48" fill="none" xmlns="http://www.w3.org/2000/svg" xmlns:xlink="http://www.w3.org/1999/xlink">
<path d="M29.143,4.469L29.143,14.755L39.429,14.755L29.143,4.469Z" transform="rotate(0 34.286 9.612)" fill="#6E7787"/>
<path d="M29.143,14.755L27.086,14.755L27.086,16.812L29.143,16.812L29.143,14.755ZM27.086,4.469L27.086,14.755L31.2,14.755L31.2,4.469L27.086,4.469ZM29.143,16.812L39.429,16.812L39.429,12.698L29.143,12.698L29.143,16.812Z" transform="rotate(0 34.286 9.612)" fill="#6E7787"/>
<path d="M29.143,4.469L30.598,3.015L29.995,2.412L29.143,2.412L29.143,4.469ZM8.572,4.469L8.572,2.412L6.514,2.412L6.514,4.469L8.572,4.469ZM8.572,42.183L6.514,42.183L6.514,44.241L8.572,44.241L8.572,42.183ZM39.429,42.183L39.429,44.241L41.486,44.241L41.486,42.183L39.429,42.183ZM39.429,14.755L41.486,14.755L41.486,13.903L40.883,13.3L39.429,14.755ZM29.143,2.412L8.572,2.412L8.572,6.526L29.143,6.526L29.143,2.412ZM6.514,4.469L6.514,42.183L10.629,42.183L10.629,4.469L6.514,4.469ZM8.572,44.241L39.429,44.241L39.429,40.126L8.572,40.126L8.572,44.241ZM41.486,42.183L41.486,14.755L37.372,14.755L37.372,42.183L41.486,42.183ZM40.883,13.3L30.598,3.015L27.688,5.924L37.974,16.21L40.883,13.3Z" transform="rotate(0 24 23.326)" fill="#6E7787"/>
<line x1="15.428" y1="12.698" x2="22.286" y2="12.698" stroke="#6E7787" stroke-width="2.057" stroke-miterlimit="10" stroke-linecap="square"/>
<line x1="15.428" y1="21.269" x2="32.571" y2="21.269" stroke="#6E7787" stroke-width="2.057" stroke-miterlimit="10" stroke-linecap="square"/>
<line x1="15.428" y1="29.84" x2="32.571" y2="29.84" stroke="#6E7787" stroke-width="2.057" stroke-miterlimit="10" stroke-linecap="square"/>
</svg>
