<svg width="48" height="48" viewBox="0 0 48 48" fill="none" xmlns="http://www.w3.org/2000/svg" xmlns:xlink="http://www.w3.org/1999/xlink">
<path d="M8.572,4.469L8.572,2.412L6.514,2.412L6.514,4.469L8.572,4.469ZM20.572,4.469L22.629,4.469L22.629,2.412L20.572,2.412L20.572,4.469ZM20.572,25.041L20.572,27.098L22.629,27.098L22.629,25.041L20.572,25.041ZM8.572,25.041L6.514,25.041L6.514,27.098L8.572,27.098L8.572,25.041ZM8.572,6.526L20.572,6.526L20.572,2.412L8.572,2.412L8.572,6.526ZM18.514,4.469L18.514,25.041L22.629,25.041L22.629,4.469L18.514,4.469ZM20.572,22.984L8.572,22.984L8.572,27.098L20.572,27.098L20.572,22.984ZM10.629,25.041L10.629,4.469L6.514,4.469L6.514,25.041L10.629,25.041Z" transform="rotate(0 14.572 14.755)" fill="#FFFFFF"/>
<path d="M8.572,31.897L8.572,29.84L6.514,29.84L6.514,31.897L8.572,31.897ZM20.572,31.897L22.629,31.897L22.629,29.84L20.572,29.84L20.572,31.897ZM20.572,42.183L20.572,44.24L22.629,44.24L22.629,42.183L20.572,42.183ZM8.572,42.183L6.514,42.183L6.514,44.24L8.572,44.24L8.572,42.183ZM8.572,33.955L20.572,33.955L20.572,29.84L8.572,29.84L8.572,33.955ZM18.514,31.897L18.514,42.183L22.629,42.183L22.629,31.897L18.514,31.897ZM20.572,40.126L8.572,40.126L8.572,44.24L20.572,44.24L20.572,40.126ZM10.629,42.183L10.629,31.897L6.514,31.897L6.514,42.183L10.629,42.183Z" transform="rotate(0 14.572 37.04)" fill="#FFFFFF"/>
<path d="M27.428,4.469L27.428,2.412L25.371,2.412L25.371,4.469L27.428,4.469ZM39.428,4.469L41.486,4.469L41.486,2.412L39.428,2.412L39.428,4.469ZM39.428,14.755L39.428,16.812L41.486,16.812L41.486,14.755L39.428,14.755ZM27.428,14.755L25.371,14.755L25.371,16.812L27.428,16.812L27.428,14.755ZM27.428,6.526L39.428,6.526L39.428,2.412L27.428,2.412L27.428,6.526ZM37.371,4.469L37.371,14.755L41.486,14.755L41.486,4.469L37.371,4.469ZM39.428,12.698L27.428,12.698L27.428,16.812L39.428,16.812L39.428,12.698ZM29.486,14.755L29.486,4.469L25.371,4.469L25.371,14.755L29.486,14.755Z" transform="rotate(0 33.428 9.612)" fill="#FFFFFF"/>
<path d="M27.428,21.612L27.428,19.555L25.371,19.555L25.371,21.612L27.428,21.612ZM39.428,21.612L41.486,21.612L41.486,19.555L39.428,19.555L39.428,21.612ZM39.428,42.183L39.428,44.24L41.486,44.24L41.486,42.183L39.428,42.183ZM27.428,42.183L25.371,42.183L25.371,44.24L27.428,44.24L27.428,42.183ZM27.428,23.669L39.428,23.669L39.428,19.555L27.428,19.555L27.428,23.669ZM37.371,21.612L37.371,42.183L41.486,42.183L41.486,21.612L37.371,21.612ZM39.428,40.126L27.428,40.126L27.428,44.24L39.428,44.24L39.428,40.126ZM29.486,42.183L29.486,21.612L25.371,21.612L25.371,42.183L29.486,42.183Z" transform="rotate(0 33.428 31.898)" fill="#FFFFFF"/>
</svg>
