<svg width="48" height="48" viewBox="0 0 48 48" fill="none" xmlns="http://www.w3.org/2000/svg" xmlns:xlink="http://www.w3.org/1999/xlink">
<path d="M17.486,37.726L16.248,39.37L16.251,39.372L17.486,37.726ZM18.857,42.183L18.857,44.241L20.914,44.241L20.914,42.183L18.857,42.183ZM5.143,42.183L3.086,42.183L3.086,44.241L5.143,44.241L5.143,42.183ZM6.514,37.726L7.749,39.372L7.752,39.37L6.514,37.726ZM12.463,36.519L16.248,39.37L18.723,36.083L14.938,33.232L12.463,36.519ZM16.251,39.372C16.597,39.632 16.8,40.037 16.8,40.469L20.914,40.469C20.914,38.742 20.102,37.117 18.72,36.081L16.251,39.372ZM16.8,40.469L16.8,42.183L20.914,42.183L20.914,40.469L16.8,40.469ZM18.857,40.126L5.143,40.126L5.143,44.241L18.857,44.241L18.857,40.126ZM7.2,42.183L7.2,40.469L3.086,40.469L3.086,42.183L7.2,42.183ZM7.2,40.469C7.2,40.037 7.403,39.632 7.749,39.372L5.28,36.081C3.898,37.117 3.086,38.742 3.086,40.469L7.2,40.469ZM7.752,39.37L11.537,36.519L9.062,33.232L5.277,36.083L7.752,39.37Z" transform="rotate(0 12 38.529)" fill="#565E6C"/>
<path d="M12,33.269C11.242,33.269 10.629,32.656 10.629,31.898L6.514,31.898C6.514,34.928 8.97,37.383 12,37.383L12,33.269ZM10.629,31.898L10.629,30.183L6.514,30.183L6.514,31.898L10.629,31.898ZM10.629,30.183C10.629,29.425 11.242,28.812 12,28.812L12,24.698C8.97,24.698 6.514,27.153 6.514,30.183L10.629,30.183ZM12,28.812C12.758,28.812 13.372,29.425 13.372,30.183L17.486,30.183C17.486,27.153 15.031,24.698 12,24.698L12,28.812ZM13.372,30.183L13.372,31.898L17.486,31.898L17.486,30.183L13.372,30.183ZM13.372,31.898C13.372,32.656 12.758,33.269 12,33.269L12,37.383C15.031,37.383 17.486,34.928 17.486,31.898L13.372,31.898Z" transform="rotate(0 12 31.041)" fill="#565E6C"/>
<path d="M29.486,15.441L28.248,17.084L28.251,17.086L29.486,15.441ZM30.857,19.898L30.857,21.955L32.914,21.955L32.914,19.898L30.857,19.898ZM17.143,19.898L15.086,19.898L15.086,21.955L17.143,21.955L17.143,19.898ZM18.514,15.441L19.749,17.086L19.752,17.084L18.514,15.441ZM24.463,14.233L28.248,17.084L30.723,13.797L26.938,10.947L24.463,14.233ZM28.251,17.086C28.597,17.346 28.8,17.751 28.8,18.184L32.914,18.184C32.914,16.456 32.102,14.831 30.72,13.795L28.251,17.086ZM28.8,18.184L28.8,19.898L32.914,19.898L32.914,18.184L28.8,18.184ZM30.857,17.841L17.143,17.841L17.143,21.955L30.857,21.955L30.857,17.841ZM19.2,19.898L19.2,18.184L15.086,18.184L15.086,19.898L19.2,19.898ZM19.2,18.184C19.2,17.751 19.403,17.346 19.749,17.086L17.28,13.795C15.898,14.831 15.086,16.456 15.086,18.184L19.2,18.184ZM19.752,17.084L23.537,14.233L21.062,10.947L17.277,13.797L19.752,17.084Z" transform="rotate(0 24 16.244)" fill="#565E6C"/>
<path d="M24,10.984C23.242,10.984 22.629,10.37 22.629,9.612L18.514,9.612C18.514,12.643 20.97,15.098 24,15.098L24,10.984ZM22.629,9.612L22.629,7.898L18.514,7.898L18.514,9.612L22.629,9.612ZM22.629,7.898C22.629,7.14 23.242,6.526 24,6.526L24,2.412C20.97,2.412 18.514,4.867 18.514,7.898L22.629,7.898ZM24,6.526C24.758,6.526 25.372,7.14 25.372,7.898L29.486,7.898C29.486,4.867 27.031,2.412 24,2.412L24,6.526ZM25.372,7.898L25.372,9.612L29.486,9.612L29.486,7.898L25.372,7.898ZM25.372,9.612C25.372,10.37 24.758,10.984 24,10.984L24,15.098C27.031,15.098 29.486,12.643 29.486,9.612L25.372,9.612Z" transform="rotate(0 24 8.755)" fill="#565E6C"/>
<path d="M41.486,37.726L40.248,39.37L40.251,39.372L41.486,37.726ZM42.857,42.183L42.857,44.241L44.914,44.241L44.914,42.183L42.857,42.183ZM29.143,42.183L27.086,42.183L27.086,44.241L29.143,44.241L29.143,42.183ZM30.514,37.726L31.749,39.372L31.752,39.37L30.514,37.726ZM36.463,36.519L40.248,39.37L42.723,36.083L38.938,33.232L36.463,36.519ZM40.251,39.372C40.597,39.632 40.8,40.037 40.8,40.469L44.914,40.469C44.914,38.742 44.102,37.117 42.72,36.081L40.251,39.372ZM40.8,40.469L40.8,42.183L44.914,42.183L44.914,40.469L40.8,40.469ZM42.857,40.126L29.143,40.126L29.143,44.241L42.857,44.241L42.857,40.126ZM31.2,42.183L31.2,40.469L27.086,40.469L27.086,42.183L31.2,42.183ZM31.2,40.469C31.2,40.037 31.403,39.632 31.749,39.372L29.28,36.081C27.898,37.117 27.086,38.742 27.086,40.469L31.2,40.469ZM31.752,39.37L35.537,36.519L33.062,33.232L29.277,36.083L31.752,39.37Z" transform="rotate(0 36 38.529)" fill="#565E6C"/>
<path d="M36,33.269C35.242,33.269 34.629,32.656 34.629,31.898L30.514,31.898C30.514,34.928 32.97,37.383 36,37.383L36,33.269ZM34.629,31.898L34.629,30.183L30.514,30.183L30.514,31.898L34.629,31.898ZM34.629,30.183C34.629,29.425 35.242,28.812 36,28.812L36,24.698C32.97,24.698 30.514,27.153 30.514,30.183L34.629,30.183ZM36,28.812C36.758,28.812 37.372,29.425 37.372,30.183L41.486,30.183C41.486,27.153 39.031,24.698 36,24.698L36,28.812ZM37.372,30.183L37.372,31.898L41.486,31.898L41.486,30.183L37.372,30.183ZM37.372,31.898C37.372,32.656 36.758,33.269 36,33.269L36,37.383C39.031,37.383 41.486,34.928 41.486,31.898L37.372,31.898Z" transform="rotate(0 36 31.041)" fill="#565E6C"/>
</svg>
