<svg width="32" height="32" viewBox="0 0 32 32" fill="none" xmlns="http://www.w3.org/2000/svg" xmlns:xlink="http://www.w3.org/1999/xlink">
<line x1="14.629" y1="3.897" x2="14.629" y2="21.04" stroke="#7D76CF" stroke-width="1.371" stroke-miterlimit="10"/>
<path d="M21.888,11.724L22.857,12.694L24.797,10.755L23.827,9.785L21.888,11.724ZM16,3.897L16.97,2.928L16,1.958L15.03,2.928L16,3.897ZM8.173,9.785L7.204,10.755L9.143,12.694L10.113,11.724L8.173,9.785ZM23.827,9.785L16.97,2.928L15.03,4.867L21.888,11.724L23.827,9.785ZM15.03,2.928L8.173,9.785L10.113,11.724L16.97,4.867L15.03,2.928Z" transform="rotate(0 16 7.326)" fill="#7D76CF"/>
<line x1="4.571" y1="25.383" x2="27.428" y2="25.383" stroke="#7D76CF" stroke-width="1.371" stroke-miterlimit="10" stroke-linecap="square"/>
</svg>
