<svg width="32" height="32" viewBox="0 0 32 32" fill="none" xmlns="http://www.w3.org/2000/svg" xmlns:xlink="http://www.w3.org/1999/xlink">
<path d="M26.459,27.724L27.428,28.694L29.368,26.755L28.398,25.785L26.459,27.724ZM23.827,21.213L22.857,20.244L20.917,22.183L21.887,23.153L23.827,21.213ZM28.398,25.785L23.827,21.213L21.887,23.153L26.459,27.724L28.398,25.785Z" transform="rotate(0 25.143 24.469)" fill="#171A1F"/>
<path d="M21.486,13.04C21.486,17.332 18.006,20.812 13.714,20.812L13.714,23.555C19.521,23.555 24.228,18.847 24.228,13.04L21.486,13.04ZM13.714,20.812C9.422,20.812 5.943,17.332 5.943,13.04L3.2,13.04C3.2,18.847 7.907,23.555 13.714,23.555L13.714,20.812ZM5.943,13.04C5.943,8.748 9.422,5.269 13.714,5.269L13.714,2.526C7.907,2.526 3.2,7.233 3.2,13.04L5.943,13.04ZM13.714,5.269C18.006,5.269 21.486,8.748 21.486,13.04L24.228,13.04C24.228,7.233 19.521,2.526 13.714,2.526L13.714,5.269Z" transform="rotate(0 13.714 13.04)" fill="#171A1F"/>
<path d="M10.514,13.041C10.514,12.192 10.852,11.378 11.452,10.778L9.512,8.838C8.398,9.953 7.772,11.465 7.772,13.041L10.514,13.041ZM11.452,10.778C12.052,10.178 12.866,9.841 13.714,9.841L13.714,7.098C12.138,7.098 10.627,7.724 9.512,8.838L11.452,10.778Z" transform="rotate(0 11.429 10.755)" fill="#171A1F"/>
</svg>
