<svg width="48" height="48" viewBox="0 0 48 48" fill="none" xmlns="http://www.w3.org/2000/svg" xmlns:xlink="http://www.w3.org/1999/xlink">
<path d="M27.086,23.326C27.086,25.03 25.704,26.412 24,26.412L24,30.526C27.976,30.526 31.2,27.302 31.2,23.326L27.086,23.326ZM24,26.412C22.296,26.412 20.914,25.03 20.914,23.326L16.8,23.326C16.8,27.302 20.024,30.526 24,30.526L24,26.412ZM20.914,23.326C20.914,21.622 22.296,20.24 24,20.24L24,16.126C20.024,16.126 16.8,19.35 16.8,23.326L20.914,23.326ZM24,20.24C25.704,20.24 27.086,21.622 27.086,23.326L31.2,23.326C31.2,19.35 27.976,16.126 24,16.126L24,20.24Z" transform="rotate(0 24 23.326)" fill="#565E6C"/>
<path d="M37.714,23.326L39.771,23.331L39.771,23.322L37.714,23.326ZM37.392,20.39L36.15,18.75L35.1,19.545L35.383,20.832L37.392,20.39ZM42.045,16.867L43.286,18.507L44.734,17.411L43.826,15.838L42.045,16.867ZM38.616,10.929L40.397,9.9L39.489,8.327L37.816,9.033L38.616,10.929ZM33.228,13.202L31.838,14.718L32.811,15.61L34.028,15.097L33.228,13.202ZM28.152,10.255L26.111,10.51L26.274,11.813L27.524,12.214L28.152,10.255ZM27.429,4.469L29.47,4.214L29.244,2.412L27.429,2.412L27.429,4.469ZM20.571,4.469L20.571,2.412L18.755,2.412L18.53,4.214L20.571,4.469ZM19.848,10.255L20.475,12.214L21.726,11.813L21.889,10.51L19.848,10.255ZM14.772,13.202L13.972,15.097L15.189,15.61L16.162,14.718L14.772,13.202ZM9.384,10.929L10.184,9.033L8.51,8.327L7.602,9.9L9.384,10.929ZM5.955,16.867L4.174,15.838L3.266,17.411L4.714,18.507L5.955,16.867ZM10.608,20.39L12.616,20.836L12.902,19.547L11.85,18.75L10.608,20.39ZM10.608,26.263L11.85,27.903L12.902,27.106L12.616,25.817L10.608,26.263ZM5.955,29.786L4.714,28.146L3.266,29.242L4.174,30.814L5.955,29.786ZM9.384,35.724L7.602,36.753L8.51,38.325L10.184,37.619L9.384,35.724ZM14.772,33.451L16.162,31.935L15.189,31.042L13.972,31.556L14.772,33.451ZM19.848,36.398L21.889,36.143L21.726,34.839L20.475,34.439L19.848,36.398ZM20.571,42.183L18.53,42.439L18.755,44.241L20.571,44.241L20.571,42.183ZM27.429,42.183L27.429,44.241L29.244,44.241L29.47,42.439L27.429,42.183ZM28.152,36.398L27.524,34.439L26.274,34.839L26.111,36.143L28.152,36.398ZM33.228,33.451L34.028,31.556L32.811,31.042L31.838,31.935L33.228,33.451ZM38.616,35.724L37.816,37.619L39.489,38.325L40.397,36.753L38.616,35.724ZM42.045,29.786L43.826,30.814L44.734,29.242L43.286,28.146L42.045,29.786ZM37.392,26.263L35.383,25.821L35.1,27.108L36.15,27.903L37.392,26.263ZM39.771,23.322C39.769,22.187 39.645,21.056 39.401,19.948L35.383,20.832C35.563,21.653 35.655,22.49 35.657,23.331L39.771,23.322ZM38.634,22.03L43.286,18.507L40.803,15.227L36.15,18.75L38.634,22.03ZM43.826,15.838L40.397,9.9L36.834,11.957L40.263,17.896L43.826,15.838ZM37.816,9.033L32.428,11.306L34.028,15.097L39.416,12.824L37.816,9.033ZM34.618,11.685C32.94,10.147 30.948,8.99 28.779,8.296L27.524,12.214C29.126,12.727 30.598,13.581 31.838,14.718L34.618,11.685ZM30.193,10L29.47,4.214L25.387,4.724L26.111,10.51L30.193,10ZM27.429,2.412L20.571,2.412L20.571,6.526L27.429,6.526L27.429,2.412ZM18.53,4.214L17.807,10L21.889,10.51L22.613,4.724L18.53,4.214ZM19.22,8.296C17.052,8.99 15.06,10.147 13.382,11.685L16.162,14.718C17.402,13.581 18.874,12.727 20.475,12.214L19.22,8.296ZM15.572,11.306L10.184,9.033L8.584,12.824L13.972,15.097L15.572,11.306ZM7.602,9.9L4.174,15.838L7.737,17.896L11.165,11.957L7.602,9.9ZM4.714,18.507L9.366,22.03L11.85,18.75L7.197,15.227L4.714,18.507ZM8.6,19.944C8.105,22.172 8.105,24.481 8.6,26.709L12.616,25.817C12.252,24.177 12.252,22.476 12.616,20.836L8.6,19.944ZM9.366,24.623L4.714,28.146L7.197,31.426L11.85,27.903L9.366,24.623ZM4.174,30.814L7.602,36.753L11.165,34.695L7.737,28.757L4.174,30.814ZM10.184,37.619L15.572,35.346L13.972,31.556L8.584,33.829L10.184,37.619ZM13.382,34.967C15.06,36.506 17.052,37.662 19.22,38.357L20.475,34.439C18.874,33.926 17.402,33.071 16.162,31.935L13.382,34.967ZM17.807,36.653L18.53,42.439L22.613,41.928L21.889,36.143L17.807,36.653ZM20.571,44.241L27.429,44.241L27.429,40.126L20.571,40.126L20.571,44.241ZM29.47,42.439L30.193,36.653L26.111,36.143L25.387,41.928L29.47,42.439ZM28.779,38.357C30.948,37.662 32.94,36.506 34.618,34.967L31.838,31.935C30.598,33.071 29.126,33.926 27.524,34.439L28.779,38.357ZM32.428,35.346L37.816,37.619L39.416,33.829L34.028,31.556L32.428,35.346ZM40.397,36.753L43.826,30.814L40.263,28.757L36.834,34.695L40.397,36.753ZM43.286,28.146L38.634,24.623L36.15,27.903L40.803,31.426L43.286,28.146ZM39.401,26.705C39.645,25.597 39.769,24.465 39.771,23.331L35.657,23.322C35.655,24.162 35.563,25 35.383,25.821L39.401,26.705Z" transform="rotate(0 24 23.326)" fill="#565E6C"/>
</svg>
