<svg width="40" height="40" viewBox="0 0 40 40" fill="none" xmlns="http://www.w3.org/2000/svg" xmlns:xlink="http://www.w3.org/1999/xlink">
<path d="M11.429,35.04C12.218,35.04 12.857,34.401 12.857,33.612C12.857,32.823 12.218,32.183 11.429,32.183C10.64,32.183 10,32.823 10,33.612C10,34.401 10.64,35.04 11.429,35.04Z" transform="rotate(0 11.429 33.612)" fill="#FFFFFF"/>
<path d="M31.429,35.04C32.218,35.04 32.857,34.401 32.857,33.612C32.857,32.823 32.218,32.183 31.429,32.183C30.64,32.183 30,32.823 30,33.612C30,34.401 30.64,35.04 31.429,35.04Z" transform="rotate(0 31.429 33.612)" fill="#FFFFFF"/>
<path d="M11.143,33.612C11.143,33.454 11.271,33.326 11.429,33.326L11.429,36.755C13.164,36.755 14.571,35.347 14.571,33.612L11.143,33.612ZM11.429,33.326C11.586,33.326 11.714,33.454 11.714,33.612L8.286,33.612C8.286,35.347 9.693,36.755 11.429,36.755L11.429,33.326ZM11.714,33.612C11.714,33.769 11.586,33.897 11.429,33.897L11.429,30.469C9.693,30.469 8.286,31.876 8.286,33.612L11.714,33.612ZM11.429,33.897C11.271,33.897 11.143,33.769 11.143,33.612L14.571,33.612C14.571,31.876 13.164,30.469 11.429,30.469L11.429,33.897Z" transform="rotate(0 11.429 33.612)" fill="#FFFFFF"/>
<path d="M31.143,33.612C31.143,33.454 31.271,33.326 31.429,33.326L31.429,36.755C33.164,36.755 34.571,35.347 34.571,33.612L31.143,33.612ZM31.429,33.326C31.586,33.326 31.714,33.454 31.714,33.612L28.286,33.612C28.286,35.347 29.693,36.755 31.429,36.755L31.429,33.326ZM31.714,33.612C31.714,33.769 31.586,33.897 31.429,33.897L31.429,30.469C29.693,30.469 28.286,31.876 28.286,33.612L31.714,33.612ZM31.429,33.897C31.271,33.897 31.143,33.769 31.143,33.612L34.571,33.612C34.571,31.876 33.164,30.469 31.429,30.469L31.429,33.897Z" transform="rotate(0 31.429 33.612)" fill="#FFFFFF"/>
<path d="M9.714,10.469L8,10.469L8,13.898L9.714,13.898L9.714,10.469ZM34.286,12.183L35.967,12.52L36.377,10.469L34.286,10.469L34.286,12.183ZM31.888,24.172L33.569,24.508L33.569,24.508L31.888,24.172ZM11.099,23.989L12.798,23.763L12.798,23.762L11.099,23.989ZM8.571,5.041L10.271,4.814L10.072,3.326L8.571,3.326L8.571,5.041ZM4.286,3.326L2.571,3.326L2.571,6.755L4.286,6.755L4.286,3.326ZM9.714,13.898L34.286,13.898L34.286,10.469L9.714,10.469L9.714,13.898ZM32.605,11.847L30.207,23.836L33.569,24.508L35.967,12.52L32.605,11.847ZM30.207,23.836C30.101,24.37 29.631,24.755 29.087,24.755L29.087,28.183C31.266,28.183 33.142,26.645 33.569,24.508L30.207,23.836ZM29.087,24.755L13.93,24.755L13.93,28.183L29.087,28.183L29.087,24.755ZM13.93,24.755C13.357,24.755 12.873,24.331 12.798,23.763L9.399,24.215C9.701,26.488 11.64,28.183 13.93,28.183L13.93,24.755ZM12.798,23.762L10.271,4.814L6.872,5.267L9.399,24.216L12.798,23.762ZM8.571,3.326L4.286,3.326L4.286,6.755L8.571,6.755L8.571,3.326Z" transform="rotate(0 19.286 15.755)" fill="#FFFFFF"/>
</svg>
