<svg width="6" height="8" viewBox="0 0 6 8" fill="none" xmlns="http://www.w3.org/2000/svg" xmlns:xlink="http://www.w3.org/1999/xlink">
<path d="M2.686,3.326C2.686,3.705 2.379,4.012 2,4.012L2,6.069C3.515,6.069 4.743,4.841 4.743,3.326L2.686,3.326ZM2,4.012C1.621,4.012 1.314,3.705 1.314,3.326L-0.743,3.326C-0.743,4.841 0.485,6.069 2,6.069L2,4.012ZM1.314,3.326C1.314,2.947 1.621,2.64 2,2.64L2,0.583C0.485,0.583 -0.743,1.811 -0.743,3.326L1.314,3.326ZM2,2.64C2.379,2.64 2.686,2.947 2.686,3.326L4.743,3.326C4.743,1.811 3.515,0.583 2,0.583L2,2.64Z" transform="rotate(0 2 3.326)" fill="#9095A0"/>
</svg>
