<svg width="10" height="34" viewBox="0 0 10 34" fill="none" xmlns="http://www.w3.org/2000/svg" xmlns:xlink="http://www.w3.org/1999/xlink">
<path d="M4.555,8.963C6.755,8.963 8.555,7.163 8.555,4.963C8.555,2.763 6.755,0.963 4.555,0.963C2.355,0.963 0.555,2.763 0.555,4.963C0.555,7.163 2.355,8.963 4.555,8.963ZM4.555,12.963C2.355,12.963 0.555,14.763 0.555,16.963C0.555,19.163 2.355,20.963 4.555,20.963C6.755,20.963 8.555,19.163 8.555,16.963C8.555,14.763 6.755,12.963 4.555,12.963ZM4.555,24.963C2.355,24.963 0.555,26.763 0.555,28.963C0.555,31.163 2.355,32.963 4.555,32.963C6.755,32.963 8.555,31.163 8.555,28.963C8.555,26.763 6.755,24.963 4.555,24.963Z" transform="rotate(0 4.555 16.963)" fill="#9095A0"/>
</svg>
