<svg width="10" height="34" viewBox="0 0 10 34" fill="none" xmlns="http://www.w3.org/2000/svg" xmlns:xlink="http://www.w3.org/1999/xlink">
<path d="M4.555,8.781C6.755,8.781 8.555,6.981 8.555,4.781C8.555,2.581 6.755,0.781 4.555,0.781C2.355,0.781 0.555,2.581 0.555,4.781C0.555,6.981 2.355,8.781 4.555,8.781ZM4.555,12.781C2.355,12.781 0.555,14.581 0.555,16.781C0.555,18.981 2.355,20.781 4.555,20.781C6.755,20.781 8.555,18.981 8.555,16.781C8.555,14.581 6.755,12.781 4.555,12.781ZM4.555,24.781C2.355,24.781 0.555,26.581 0.555,28.781C0.555,30.981 2.355,32.781 4.555,32.781C6.755,32.781 8.555,30.981 8.555,28.781C8.555,26.581 6.755,24.781 4.555,24.781Z" transform="rotate(0 4.555 16.781)" fill="#9095A0"/>
</svg>
