<svg width="10" height="32" viewBox="0 0 10 32" fill="none" xmlns="http://www.w3.org/2000/svg" xmlns:xlink="http://www.w3.org/1999/xlink">
<path d="M4.555,7.872C6.755,7.872 8.555,6.072 8.555,3.872C8.555,1.672 6.755,-0.128 4.555,-0.128C2.355,-0.128 0.555,1.672 0.555,3.872C0.555,6.072 2.355,7.872 4.555,7.872ZM4.555,11.872C2.355,11.872 0.555,13.672 0.555,15.872C0.555,18.072 2.355,19.872 4.555,19.872C6.755,19.872 8.555,18.072 8.555,15.872C8.555,13.672 6.755,11.872 4.555,11.872ZM4.555,23.872C2.355,23.872 0.555,25.672 0.555,27.872C0.555,30.072 2.355,31.872 4.555,31.872C6.755,31.872 8.555,30.072 8.555,27.872C8.555,25.672 6.755,23.872 4.555,23.872Z" transform="rotate(0 4.555 15.872)" fill="#9095A0"/>
</svg>
