<svg width="10" height="34" viewBox="0 0 10 34" fill="none" xmlns="http://www.w3.org/2000/svg" xmlns:xlink="http://www.w3.org/1999/xlink">
<path d="M4.555,8.235C6.755,8.235 8.555,6.435 8.555,4.235C8.555,2.035 6.755,0.235 4.555,0.235C2.355,0.235 0.555,2.035 0.555,4.235C0.555,6.435 2.355,8.235 4.555,8.235ZM4.555,12.235C2.355,12.235 0.555,14.035 0.555,16.235C0.555,18.435 2.355,20.235 4.555,20.235C6.755,20.235 8.555,18.435 8.555,16.235C8.555,14.035 6.755,12.235 4.555,12.235ZM4.555,24.235C2.355,24.235 0.555,26.035 0.555,28.235C0.555,30.435 2.355,32.235 4.555,32.235C6.755,32.235 8.555,30.435 8.555,28.235C8.555,26.035 6.755,24.235 4.555,24.235Z" transform="rotate(0 4.555 16.235)" fill="#9095A0"/>
</svg>
