<svg width="42" height="40" viewBox="0 0 42 40" fill="none" xmlns="http://www.w3.org/2000/svg" xmlns:xlink="http://www.w3.org/1999/xlink">
<path d="M1.143,33.04L-0.914,33.04L1.143,33.04ZM1.143,2.183L1.143,0.126L-0.914,0.126L-0.914,2.183L1.143,2.183ZM14.857,2.183L16.503,0.949L15.886,0.126L14.857,0.126L14.857,2.183ZM20,9.04L18.354,10.275L18.971,11.097L20,11.097L20,9.04ZM38.857,9.04L40.914,9.04L40.914,6.983L38.857,6.983L38.857,9.04ZM35.429,34.412L4.571,34.412L4.571,38.526L35.429,38.526L35.429,34.412ZM4.571,34.412C4.208,34.412 3.859,34.267 3.602,34.01L0.692,36.919C1.721,37.948 3.116,38.526 4.571,38.526L4.571,34.412ZM3.602,34.01C3.344,33.753 3.2,33.404 3.2,33.04L-0.914,33.04C-0.914,34.495 -0.336,35.891 0.692,36.919L3.602,34.01ZM3.2,33.04L3.2,2.183L-0.914,2.183L-0.914,33.04L3.2,33.04ZM1.143,4.24L14.857,4.24L14.857,0.126L1.143,0.126L1.143,4.24ZM13.211,3.417L18.354,10.275L21.646,7.806L16.503,0.949L13.211,3.417ZM20,11.097L38.857,11.097L38.857,6.983L20,6.983L20,11.097ZM36.8,9.04L36.8,33.04L40.914,33.04L40.914,9.04L36.8,9.04ZM36.8,33.04C36.8,33.404 36.655,33.753 36.398,34.01L39.307,36.919C40.336,35.891 40.914,34.495 40.914,33.04L36.8,33.04ZM36.398,34.01C36.141,34.267 35.792,34.412 35.429,34.412L35.429,38.526C36.883,38.526 38.279,37.948 39.307,36.919L36.398,34.01Z" transform="rotate(0 20 19.326)" fill="#565E6C"/>
</svg>
