<svg width="32" height="32" viewBox="0 0 32 32" fill="none" xmlns="http://www.w3.org/2000/svg" xmlns:xlink="http://www.w3.org/1999/xlink">
<path d="M16.27,30.401C13.339,30.401 10.693,29.775 8.333,28.524C6.009,27.272 4.168,25.484 2.81,23.159C1.487,20.835 0.825,18.117 0.825,15.006C0.825,11.93 1.505,9.23 2.863,6.906C4.221,4.545 6.081,2.739 8.44,1.488C10.801,0.236 13.446,-0.39 16.378,-0.39C19.309,-0.39 21.955,0.236 24.314,1.488C26.674,2.739 28.532,4.545 29.891,6.906C31.25,9.23 31.929,11.93 31.929,15.006C31.929,18.081 31.231,20.799 29.838,23.159C28.479,25.484 26.602,27.272 24.206,28.524C21.847,29.775 19.202,30.401 16.27,30.401ZM16.27,22.462C18.021,22.462 19.506,21.818 20.722,20.531C21.972,19.243 22.598,17.402 22.598,15.006C22.598,12.61 21.99,10.768 20.775,9.481C19.594,8.193 18.129,7.549 16.378,7.549C14.59,7.549 13.106,8.193 11.926,9.481C10.746,10.732 10.156,12.574 10.156,15.006C10.156,17.402 10.729,19.243 11.873,20.531C13.052,21.818 14.518,22.462 16.27,22.462Z" fill="#171A1F"/>
</svg>
