<svg width="6" height="8" viewBox="0 0 6 8" fill="none" xmlns="http://www.w3.org/2000/svg" xmlns:xlink="http://www.w3.org/1999/xlink">
<path d="M2.971,3.326C2.971,3.705 2.664,4.012 2.286,4.012L2.286,6.069C3.8,6.069 5.028,4.841 5.028,3.326L2.971,3.326ZM2.286,4.012C1.907,4.012 1.6,3.705 1.6,3.326L-0.457,3.326C-0.457,4.841 0.771,6.069 2.286,6.069L2.286,4.012ZM1.6,3.326C1.6,2.947 1.907,2.64 2.286,2.64L2.286,0.583C0.771,0.583 -0.457,1.811 -0.457,3.326L1.6,3.326ZM2.286,2.64C2.664,2.64 2.971,2.947 2.971,3.326L5.028,3.326C5.028,1.811 3.8,0.583 2.286,0.583L2.286,2.64Z" transform="rotate(0 2.286 3.326)" fill="#9095A0"/>
</svg>
