<svg width="32" height="32" viewBox="0 0 32 32" fill="none" xmlns="http://www.w3.org/2000/svg" xmlns:xlink="http://www.w3.org/1999/xlink">
<path d="M15.344,30.401C12.412,30.401 9.767,29.775 7.407,28.524C5.084,27.272 3.242,25.484 1.884,23.159C0.561,20.835 -0.1,18.117 -0.1,15.006C-0.1,11.93 0.579,9.23 1.937,6.906C3.296,4.545 5.155,2.739 7.514,1.488C9.874,0.236 12.52,-0.39 15.451,-0.39C18.383,-0.39 21.028,0.236 23.388,1.488C25.748,2.739 27.606,4.545 28.964,6.906C30.324,9.23 31.002,11.93 31.002,15.006C31.002,18.081 30.306,20.799 28.911,23.159C27.553,25.484 25.676,27.272 23.281,28.524C20.921,29.775 18.276,30.401 15.344,30.401ZM15.344,22.462C17.096,22.462 18.579,21.818 19.795,20.531C21.046,19.243 21.672,17.402 21.672,15.006C21.672,12.61 21.064,10.768 19.849,9.481C18.669,8.193 17.203,7.549 15.451,7.549C13.664,7.549 12.18,8.193 11,9.481C9.821,10.732 9.231,12.574 9.231,15.006C9.231,17.402 9.803,19.243 10.947,20.531C12.126,21.818 13.592,22.462 15.344,22.462Z" fill="#171A1F"/>
</svg>
