<svg width="10" height="32" viewBox="0 0 10 32" fill="none" xmlns="http://www.w3.org/2000/svg" xmlns:xlink="http://www.w3.org/1999/xlink">
<path d="M4.555,7.69C6.755,7.69 8.555,5.89 8.555,3.69C8.555,1.49 6.755,-0.31 4.555,-0.31C2.355,-0.31 0.555,1.49 0.555,3.69C0.555,5.89 2.355,7.69 4.555,7.69ZM4.555,11.69C2.355,11.69 0.555,13.49 0.555,15.69C0.555,17.89 2.355,19.69 4.555,19.69C6.755,19.69 8.555,17.89 8.555,15.69C8.555,13.49 6.755,11.69 4.555,11.69ZM4.555,23.69C2.355,23.69 0.555,25.49 0.555,27.69C0.555,29.89 2.355,31.69 4.555,31.69C6.755,31.69 8.555,29.89 8.555,27.69C8.555,25.49 6.755,23.69 4.555,23.69Z" transform="rotate(0 4.555 15.69)" fill="#9095A0"/>
</svg>
