<svg width="10" height="32" viewBox="0 0 10 32" fill="none" xmlns="http://www.w3.org/2000/svg" xmlns:xlink="http://www.w3.org/1999/xlink">
<path d="M4.555,7.508C6.755,7.508 8.555,5.708 8.555,3.508C8.555,1.308 6.755,-0.492 4.555,-0.492C2.355,-0.492 0.555,1.308 0.555,3.508C0.555,5.708 2.355,7.508 4.555,7.508ZM4.555,11.508C2.355,11.508 0.555,13.308 0.555,15.508C0.555,17.708 2.355,19.508 4.555,19.508C6.755,19.508 8.555,17.708 8.555,15.508C8.555,13.308 6.755,11.508 4.555,11.508ZM4.555,23.508C2.355,23.508 0.555,25.308 0.555,27.508C0.555,29.708 2.355,31.508 4.555,31.508C6.755,31.508 8.555,29.708 8.555,27.508C8.555,25.308 6.755,23.508 4.555,23.508Z" transform="rotate(0 4.555 15.508)" fill="#9095A0"/>
</svg>
