<svg width="32" height="46" viewBox="0 0 32 46" fill="none" xmlns="http://www.w3.org/2000/svg" xmlns:xlink="http://www.w3.org/1999/xlink">
<path d="M13.24,-0.397C15.35,-0.397 17.191,0.032 18.764,0.89C20.372,1.749 21.606,2.875 22.464,4.27C22.464,1.929 24.36,0.032 26.7,0.032L31.634,0.032L31.634,29.911C31.634,32.664 31.079,35.15 29.971,37.367C28.899,39.62 27.237,41.408 24.984,42.731C22.768,44.054 19.997,44.716 16.673,44.716C12.239,44.716 8.646,43.661 5.894,41.551C3.141,39.477 1.568,36.652 1.175,33.076L10.237,33.076C10.524,34.22 11.202,35.114 12.275,35.758C13.347,36.437 14.67,36.777 16.243,36.777C18.139,36.777 19.64,36.223 20.748,35.114C21.892,34.041 22.464,32.307 22.464,29.911L22.464,25.673C21.57,27.068 20.337,28.212 18.764,29.106C17.191,29.964 15.35,30.394 13.24,30.394C10.774,30.394 8.539,29.768 6.537,28.516C4.535,27.229 2.944,25.423 1.764,23.098C0.62,20.738 0.048,18.02 0.048,14.945C0.048,11.869 0.62,9.169 1.764,6.845C2.944,4.52 4.535,2.732 6.537,1.481C8.539,0.229 10.774,-0.397 13.24,-0.397ZM22.464,14.998C22.464,12.71 21.82,10.904 20.533,9.581C19.282,8.257 17.744,7.596 15.921,7.596C14.098,7.596 12.543,8.257 11.256,9.581C10.004,10.868 9.379,12.656 9.379,14.945C9.379,17.233 10.004,19.057 11.256,20.416C12.543,21.739 14.098,22.401 15.921,22.401C17.744,22.401 19.282,21.739 20.533,20.416C21.82,19.093 22.464,17.287 22.464,14.998Z" fill="#171A1F"/>
</svg>
