<svg width="8" height="8" viewBox="0 0 8 8" fill="none" xmlns="http://www.w3.org/2000/svg" xmlns:xlink="http://www.w3.org/1999/xlink">
<path d="M4.4,3.326C4.4,3.705 4.093,4.012 3.714,4.012L3.714,6.069C5.229,6.069 6.457,4.841 6.457,3.326L4.4,3.326ZM3.714,4.012C3.336,4.012 3.029,3.705 3.029,3.326L0.971,3.326C0.971,4.841 2.199,6.069 3.714,6.069L3.714,4.012ZM3.029,3.326C3.029,2.947 3.336,2.64 3.714,2.64L3.714,0.583C2.199,0.583 0.971,1.811 0.971,3.326L3.029,3.326ZM3.714,2.64C4.093,2.64 4.4,2.947 4.4,3.326L6.457,3.326C6.457,1.811 5.229,0.583 3.714,0.583L3.714,2.64Z" transform="rotate(0 3.714 3.326)" fill="#9095A0"/>
</svg>
