<svg width="10" height="34" viewBox="0 0 10 34" fill="none" xmlns="http://www.w3.org/2000/svg" xmlns:xlink="http://www.w3.org/1999/xlink">
<path d="M4.555,8.417C6.755,8.417 8.555,6.617 8.555,4.417C8.555,2.217 6.755,0.417 4.555,0.417C2.355,0.417 0.555,2.217 0.555,4.417C0.555,6.617 2.355,8.417 4.555,8.417ZM4.555,12.417C2.355,12.417 0.555,14.217 0.555,16.417C0.555,18.617 2.355,20.417 4.555,20.417C6.755,20.417 8.555,18.617 8.555,16.417C8.555,14.217 6.755,12.417 4.555,12.417ZM4.555,24.417C2.355,24.417 0.555,26.217 0.555,28.417C0.555,30.617 2.355,32.417 4.555,32.417C6.755,32.417 8.555,30.617 8.555,28.417C8.555,26.217 6.755,24.417 4.555,24.417Z" transform="rotate(0 4.555 16.417)" fill="#9095A0"/>
</svg>
