<svg width="10" height="32" viewBox="0 0 10 32" fill="none" xmlns="http://www.w3.org/2000/svg" xmlns:xlink="http://www.w3.org/1999/xlink">
<path d="M4.555,7.145C6.755,7.145 8.555,5.345 8.555,3.145C8.555,0.945 6.755,-0.855 4.555,-0.855C2.355,-0.855 0.555,0.945 0.555,3.145C0.555,5.345 2.355,7.145 4.555,7.145ZM4.555,11.145C2.355,11.145 0.555,12.945 0.555,15.145C0.555,17.345 2.355,19.145 4.555,19.145C6.755,19.145 8.555,17.345 8.555,15.145C8.555,12.945 6.755,11.145 4.555,11.145ZM4.555,23.145C2.355,23.145 0.555,24.945 0.555,27.145C0.555,29.345 2.355,31.145 4.555,31.145C6.755,31.145 8.555,29.345 8.555,27.145C8.555,24.945 6.755,23.145 4.555,23.145Z" transform="rotate(0 4.555 15.145)" fill="#9095A0"/>
</svg>
