<svg width="10" height="32" viewBox="0 0 10 32" fill="none" xmlns="http://www.w3.org/2000/svg" xmlns:xlink="http://www.w3.org/1999/xlink">
<path d="M4.555,7.327C6.755,7.327 8.555,5.527 8.555,3.327C8.555,1.127 6.755,-0.673 4.555,-0.673C2.355,-0.673 0.555,1.127 0.555,3.327C0.555,5.527 2.355,7.327 4.555,7.327ZM4.555,11.327C2.355,11.327 0.555,13.127 0.555,15.327C0.555,17.527 2.355,19.327 4.555,19.327C6.755,19.327 8.555,17.527 8.555,15.327C8.555,13.127 6.755,11.327 4.555,11.327ZM4.555,23.327C2.355,23.327 0.555,25.127 0.555,27.327C0.555,29.527 2.355,31.327 4.555,31.327C6.755,31.327 8.555,29.527 8.555,27.327C8.555,25.127 6.755,23.327 4.555,23.327Z" transform="rotate(0 4.555 15.327)" fill="#9095A0"/>
</svg>
