<svg width="10" height="34" viewBox="0 0 10 34" fill="none" xmlns="http://www.w3.org/2000/svg" xmlns:xlink="http://www.w3.org/1999/xlink">
<path d="M4.555,8.053C6.755,8.053 8.555,6.253 8.555,4.053C8.555,1.853 6.755,0.053 4.555,0.053C2.355,0.053 0.555,1.853 0.555,4.053C0.555,6.253 2.355,8.053 4.555,8.053ZM4.555,12.053C2.355,12.053 0.555,13.853 0.555,16.053C0.555,18.253 2.355,20.053 4.555,20.053C6.755,20.053 8.555,18.253 8.555,16.053C8.555,13.853 6.755,12.053 4.555,12.053ZM4.555,24.053C2.355,24.053 0.555,25.853 0.555,28.053C0.555,30.253 2.355,32.053 4.555,32.053C6.755,32.053 8.555,30.253 8.555,28.053C8.555,25.853 6.755,24.053 4.555,24.053Z" transform="rotate(0 4.555 16.053)" fill="#9095A0"/>
</svg>
